<svg width="24" height="24" viewBox="0 0 24 24" fill="none" xmlns="http://www.w3.org/2000/svg">
<path d="M18.32 12.0002C20.92 12.0002 22 11.0002 21.04 7.72018C20.39 5.51018 18.49 3.61018 16.28 2.96018C13 2.00018 12 3.08018 12 5.68018V8.56018C12 11.0002 13 12.0002 15 12.0002H18.32Z" stroke="#0694C0" stroke-width="2" stroke-linecap="round" stroke-linejoin="round"/>
<path d="M20.0001 14.6998C19.534 17.0138 18.1861 19.0559 16.2415 20.394C14.2968 21.7321 11.908 22.2613 9.58013 21.8698C5.79013 21.2598 2.74013 18.2098 2.12013 14.4198C1.73288 12.098 2.26031 9.71658 3.59167 7.77548C4.92303 5.83438 6.95473 4.48466 9.26013 4.00977" stroke="#0694C0" stroke-width="2" stroke-linecap="round" stroke-linejoin="round"/>
</svg>
