<svg width="24" height="24" viewBox="0 0 24 24" fill="none" xmlns="http://www.w3.org/2000/svg">
<rect x="2" y="4" width="16" height="8" rx="4" stroke="#A6AFBB" stroke-width="2"/>
<path fill-rule="evenodd" clip-rule="evenodd" d="M4.04235 14.3463C4.01441 14.5603 4 14.7784 4 15C4 17.7614 6.23858 20 9 20H17C19.7614 20 22 17.7614 22 15C22 13.4719 21.3145 12.1039 20.2342 11.1868C19.9254 11.7896 19.5318 12.3418 19.069 12.8276C19.6425 13.374 20 14.1453 20 15C20 16.6569 18.6569 18 17 18H9C7.34315 18 6 16.6569 6 15C6 14.9763 6.00027 14.9528 6.00082 14.9292C5.31038 14.8306 4.65243 14.6311 4.04235 14.3463Z" fill="#A6AFBB"/>
<circle cx="7" cy="8" r="1" fill="#A6AFBB"/>
<circle cx="10" cy="8" r="1" fill="#A6AFBB"/>
<circle cx="13" cy="8" r="1" fill="#A6AFBB"/>
</svg>
