<svg width="24" height="24" viewBox="0 0 24 24" fill="none" xmlns="http://www.w3.org/2000/svg">
<path fill-rule="evenodd" clip-rule="evenodd" d="M12.4472 2.10557C12.1657 1.96481 11.8343 1.96481 11.5528 2.10557L2.55279 6.60557C2.214 6.77496 2 7.12123 2 7.5C2 7.87877 2.214 8.22504 2.55279 8.39443L11.5528 12.8944C11.8343 13.0352 12.1657 13.0352 12.4472 12.8944L21.4472 8.39443C21.786 8.22504 22 7.87877 22 7.5C22 7.12123 21.786 6.77496 21.4472 6.60557L12.4472 2.10557Z" fill="#0694C0"/>
<path d="M3.12953 10.9525L2.65858 11.1915C2.32271 11.3619 2.11108 11.7066 2.11108 12.0832C2.11108 12.4599 2.32271 12.8046 2.65858 12.975L11.5475 17.4855C11.8319 17.6298 12.1681 17.6298 12.4525 17.4855L21.3414 12.975C21.6772 12.8046 21.8889 12.4599 21.8889 12.0832C21.8889 11.7066 21.6772 11.3619 21.3414 11.1915L20.8704 10.9525L18.6605 12.0739L18.6789 12.0832L12 15.4723L5.32101 12.0832L5.33945 12.0739L3.12953 10.9525Z" fill="#0694C0"/>
<path d="M3.12954 15.344L2.65858 15.583C2.32271 15.7534 2.11108 16.0981 2.11108 16.4747C2.11108 16.8514 2.32271 17.1961 2.65858 17.3665L11.5475 21.877C11.8319 22.0213 12.1681 22.0213 12.4525 21.877L21.3414 17.3665C21.6772 17.1961 21.8889 16.8514 21.8889 16.4747C21.8889 16.0981 21.6772 15.7534 21.3414 15.583L20.8704 15.344L18.6605 16.4654L18.6789 16.4747L12 19.8638L5.32101 16.4747L5.33946 16.4654L3.12954 15.344Z" fill="#0694C0"/>
</svg>
