<svg width="24" height="24" viewBox="0 0 24 24" fill="none" xmlns="http://www.w3.org/2000/svg">
<path fill-rule="evenodd" clip-rule="evenodd" d="M12.7071 2.29289C12.3166 1.90236 11.6834 1.90236 11.2929 2.29289L4.29324 9.29253C4.293 9.29277 4.29277 9.293 4.29253 9.29324L2.29289 11.2929C1.90236 11.6834 1.90236 12.3166 2.29289 12.7071C2.68341 13.0976 3.31657 13.0976 3.7071 12.7071L3.99999 12.4142V20C3.99999 21.1046 4.89542 22 5.99999 22H18C19.1046 22 20 21.1046 20 20V12.4142L20.2929 12.7071C20.6834 13.0976 21.3166 13.0976 21.7071 12.7071C22.0976 12.3166 22.0976 11.6834 21.7071 11.2929L12.7071 2.29289ZM18 10.4142L12 4.41421L5.99999 10.4142V20H18V10.4142Z" fill="#0694C0"/>
<circle cx="12" cy="13" r="3" fill="#0694C0"/>
</svg>
