<svg width="17" height="21" viewBox="0 0 17 21" fill="none" xmlns="http://www.w3.org/2000/svg">
<path d="M1.5 16.5H15.5" stroke="#777E8C" stroke-width="2" stroke-linecap="round"/>
<path d="M3.5 10.5C3.5 7.73858 5.73858 5.5 8.5 5.5V5.5C11.2614 5.5 13.5 7.73858 13.5 10.5V16.5H3.5V10.5Z" stroke="#777E8C" stroke-width="2"/>
<mask id="path-3-inside-1_1676_11237" fill="white">
<path d="M10.5 18.5C10.5 18.7626 10.4483 19.0227 10.3478 19.2654C10.2472 19.508 10.0999 19.7285 9.91421 19.9142C9.7285 20.0999 9.50802 20.2472 9.26537 20.3478C9.02272 20.4483 8.76264 20.5 8.5 20.5C8.23736 20.5 7.97728 20.4483 7.73463 20.3478C7.49198 20.2472 7.2715 20.0999 7.08579 19.9142C6.90007 19.7285 6.75275 19.508 6.65224 19.2654C6.55173 19.0227 6.5 18.7626 6.5 18.5L8.5 18.5H10.5Z"/>
</mask>
<path d="M10.5 18.5C10.5 18.7626 10.4483 19.0227 10.3478 19.2654C10.2472 19.508 10.0999 19.7285 9.91421 19.9142C9.7285 20.0999 9.50802 20.2472 9.26537 20.3478C9.02272 20.4483 8.76264 20.5 8.5 20.5C8.23736 20.5 7.97728 20.4483 7.73463 20.3478C7.49198 20.2472 7.2715 20.0999 7.08579 19.9142C6.90007 19.7285 6.75275 19.508 6.65224 19.2654C6.55173 19.0227 6.5 18.7626 6.5 18.5L8.5 18.5H10.5Z" fill="#777E8C" stroke="#777E8C" stroke-width="4" mask="url(#path-3-inside-1_1676_11237)"/>
<path d="M10.5 6V3.5C10.5 2.39543 9.60457 1.5 8.5 1.5V1.5C7.39543 1.5 6.5 2.39543 6.5 3.5V6" stroke="#777E8C" stroke-width="2"/>
</svg>
