<svg width="24" height="24" viewBox="0 0 24 24" fill="none" xmlns="http://www.w3.org/2000/svg">
<path d="M12 12C12 10.3431 13.3431 9 15 9H21C21.5523 9 22 9.44772 22 10V14C22 14.5523 21.5523 15 21 15H15C13.3431 15 12 13.6569 12 12Z" fill="#0694C0"/>
<circle cx="15" cy="12" r="1" fill="white"/>
<path fill-rule="evenodd" clip-rule="evenodd" d="M5 4C3.34315 4 2 5.34315 2 7V17C2 18.6569 3.34315 20 5 20H17C18.6569 20 20 18.6569 20 17V16H18V17C18 17.5523 17.5523 18 17 18H5C4.44772 18 4 17.5523 4 17V7C4 6.44772 4.44772 6 5 6H17C17.5523 6 18 6.44772 18 7V8H20V7C20 5.34315 18.6569 4 17 4H5Z" fill="#0694C0"/>
</svg>
